HIERARCHY
ROOT Hips
{
	OFFSET 0.000000 83.214638 0.000000
	CHANNELS 6 Xposition Yposition Zposition Xrotation Yrotation Zrotation
	JOINT Pelvis
	{
		OFFSET 0.000000 0.000000 0.000000
		CHANNELS 3 Xrotation Yrotation Zrotation
		JOINT LeftUpLeg
		{
			OFFSET 8.479700 -4.795502 -0.379100
			CHANNELS 3 Xrotation Yrotation Zrotation
			JOINT LeftLeg
			{
				OFFSET 0.024144 -32.555107 0.112900
				CHANNELS 3 Xrotation Yrotation Zrotation
				JOINT LeftFoot
				{
					OFFSET -0.024144 -32.638630 -3.012600
					CHANNELS 3 Xrotation Yrotation Zrotation
					JOINT LeftToeBase
					{
						OFFSET 0.970200 -13.225400 11.864200
						CHANNELS 3 Xrotation Yrotation Zrotation
						End Site
						{
							OFFSET 0.000000 12.319262 0.000000
						}
					}
					JOINT LFootTongue
					{
						OFFSET 1.142400 -1.059800 6.665200
						CHANNELS 3 Xrotation Yrotation Zrotation
						End Site
						{
							OFFSET 0.000000 12.319262 0.000000
						}
					}
				}
				JOINT LeftPantLeg
				{
					OFFSET 0.918482 -16.533964 -2.284700
					CHANNELS 3 Xrotation Yrotation Zrotation
					End Site
					{
						OFFSET 0.350399 24.744368 0.000000
					}
				}
			}
		}
		JOINT RightUpLeg
		{
			OFFSET -8.479700 -4.795502 -0.379100
			CHANNELS 3 Xrotation Yrotation Zrotation
			JOINT RightLeg
			{
				OFFSET -0.023144 -32.555092 0.112900
				CHANNELS 3 Xrotation Yrotation Zrotation
				JOINT RightFoot
				{
					OFFSET 0.023144 -32.638641 -3.012700
					CHANNELS 3 Xrotation Yrotation Zrotation
					JOINT RightToeBase
					{
						OFFSET -0.970200 -13.225400 11.864200
						CHANNELS 3 Xrotation Yrotation Zrotation
						End Site
						{
							OFFSET 0.000000 12.319244 0.000000
						}
					}
					JOINT RFootTongue
					{
						OFFSET -1.142200 -1.059800 6.665200
						CHANNELS 3 Xrotation Yrotation Zrotation
						End Site
						{
							OFFSET 0.000000 12.319243 0.000000
						}
					}
				}
				JOINT RightPantLeg
				{
					OFFSET -0.919482 -16.533978 -2.284800
					CHANNELS 3 Xrotation Yrotation Zrotation
					End Site
					{
						OFFSET -0.350400 24.744419 0.000000
					}
				}
			}
		}
	}
	JOINT Spine
	{
		OFFSET 0.000000 7.722000 1.166200
		CHANNELS 3 Xrotation Yrotation Zrotation
		JOINT Spine1
		{
			OFFSET 0.000000 12.024101 0.248800
			CHANNELS 3 Xrotation Yrotation Zrotation
			JOINT Spine2
			{
				OFFSET 0.000000 11.502998 -0.491200
				CHANNELS 3 Xrotation Yrotation Zrotation
				JOINT Neck
				{
					OFFSET 0.000000 18.430702 -3.123100
					CHANNELS 3 Xrotation Yrotation Zrotation
					JOINT Head
					{
						OFFSET 0.000000 9.051102 1.034000
						CHANNELS 3 Xrotation Yrotation Zrotation
						JOINT HairB
						{
							OFFSET 0.208400 24.786102 24.822300
							CHANNELS 3 Xrotation Yrotation Zrotation
							End Site
							{
								OFFSET 0.000000 32.263779 0.000000
							}
						}
						JOINT HairA
						{
							OFFSET -7.081100 24.428299 23.196600
							CHANNELS 3 Xrotation Yrotation Zrotation
							End Site
							{
								OFFSET 0.000000 32.263779 0.000000
							}
						}
						JOINT Hat
						{
							OFFSET 16.728800 15.048294 -15.439601
							CHANNELS 3 Xrotation Yrotation Zrotation
							End Site
							{
								OFFSET 0.000000 32.263779 0.000000
							}
						}
					}
				}
				JOINT LeftShoulder
				{
					OFFSET 6.197800 13.665199 -4.064700
					CHANNELS 3 Xrotation Yrotation Zrotation
					JOINT LeftArm
					{
						OFFSET 7.778100 -0.187103 -1.709300
						CHANNELS 3 Xrotation Yrotation Zrotation
						JOINT LeftForeArm
						{
							OFFSET 22.049376 0.000000 0.000000
							CHANNELS 3 Xrotation Yrotation Zrotation
							JOINT LeftHand
							{
								OFFSET 23.009392 0.000000 0.000000
								CHANNELS 3 Xrotation Yrotation Zrotation
								JOINT LeftHandThumb1
								{
									OFFSET 3.507191 -2.063065 3.133727
									CHANNELS 3 Xrotation Yrotation Zrotation
									JOINT LeftHandThumb2
									{
										OFFSET 3.101337 -1.790558 1.790558
										CHANNELS 3 Xrotation Yrotation Zrotation
										JOINT LeftHandThumb3
										{
											OFFSET 3.058640 -1.765907 1.765906
											CHANNELS 3 Xrotation Yrotation Zrotation
											End Site
											{
												OFFSET -0.415260 3.926476 -0.049563
											}
										}
									}
								}
								JOINT LeftHandIndex1
								{
									OFFSET 11.334419 -0.901459 3.706815
									CHANNELS 3 Xrotation Yrotation Zrotation
									JOINT LeftHandIndex2
									{
										OFFSET 3.283112 0.000000 0.000000
										CHANNELS 3 Xrotation Yrotation Zrotation
										JOINT LeftHandIndex3
										{
											OFFSET 3.323853 0.000000 0.000000
											CHANNELS 3 Xrotation Yrotation Zrotation
											End Site
											{
												OFFSET -1.135597 3.097809 0.402452
											}
										}
									}
								}
								JOINT LeftHandMiddle1
								{
									OFFSET 11.335861 0.000000 0.000000
									CHANNELS 3 Xrotation Yrotation Zrotation
									JOINT LeftHandMiddle2
									{
										OFFSET 3.410492 0.000000 0.000000
										CHANNELS 3 Xrotation Yrotation Zrotation
										JOINT LeftHandMiddle3
										{
											OFFSET 3.312172 0.000000 0.000000
											CHANNELS 3 Xrotation Yrotation Zrotation
											End Site
											{
												OFFSET -1.150200 3.080154 0.400270
											}
										}
									}
								}
								JOINT LeftHandRing1
								{
									OFFSET 11.514786 -0.013176 -3.003090
									CHANNELS 3 Xrotation Yrotation Zrotation
									JOINT LeftHandRing2
									{
										OFFSET 3.053307 0.000000 0.000000
										CHANNELS 3 Xrotation Yrotation Zrotation
										JOINT LeftHandRing3
										{
											OFFSET 3.295807 0.000000 0.000000
											CHANNELS 3 Xrotation Yrotation Zrotation
											End Site
											{
												OFFSET -1.281006 3.013344 0.375733
											}
										}
									}
								}
								JOINT LeftHandPinky1
								{
									OFFSET 10.518692 -0.960396 -5.730441
									CHANNELS 3 Xrotation Yrotation Zrotation
									JOINT LeftHandPinky2
									{
										OFFSET 2.861649 0.000000 0.000000
										CHANNELS 3 Xrotation Yrotation Zrotation
										JOINT LeftHandPinky3
										{
											OFFSET 2.863380 0.000000 0.000000
											CHANNELS 3 Xrotation Yrotation Zrotation
											End Site
											{
												OFFSET -0.843597 2.711159 0.369971
											}
										}
									}
								}
							}
							JOINT LSleeve
							{
								OFFSET 6.676277 -0.344902 -1.011730
								CHANNELS 3 Xrotation Yrotation Zrotation
								End Site
								{
									OFFSET 0.000000 14.885353 0.000000
								}
							}
						}
					}
				}
				JOINT RightShoulder
				{
					OFFSET -6.197800 13.665199 -4.064700
					CHANNELS 3 Xrotation Yrotation Zrotation
					JOINT RightArm
					{
						OFFSET -7.778100 -0.187103 -1.709300
						CHANNELS 3 Xrotation Yrotation Zrotation
						JOINT RightForeArm
						{
							OFFSET -22.049376 0.000000 0.000000
							CHANNELS 3 Xrotation Yrotation Zrotation
							JOINT RightHand
							{
								OFFSET -23.009392 0.000000 0.000000
								CHANNELS 3 Xrotation Yrotation Zrotation
								JOINT RightHandThumb1
								{
									OFFSET -3.507191 -2.063065 3.133727
									CHANNELS 3 Xrotation Yrotation Zrotation
									JOINT RightHandThumb2
									{
										OFFSET -3.101337 -1.790558 1.790558
										CHANNELS 3 Xrotation Yrotation Zrotation
										JOINT RightHandThumb3
										{
											OFFSET -3.058640 -1.765907 1.765906
											CHANNELS 3 Xrotation Yrotation Zrotation
											End Site
											{
												OFFSET 0.415260 3.926476 -0.049563
											}
										}
									}
								}
								JOINT RightHandIndex1
								{
									OFFSET -11.334419 -0.901459 3.706815
									CHANNELS 3 Xrotation Yrotation Zrotation
									JOINT RightHandIndex2
									{
										OFFSET -3.283112 0.000000 0.000000
										CHANNELS 3 Xrotation Yrotation Zrotation
										JOINT RightHandIndex3
										{
											OFFSET -3.323853 0.000000 0.000000
											CHANNELS 3 Xrotation Yrotation Zrotation
											End Site
											{
												OFFSET 1.135597 3.097809 0.402452
											}
										}
									}
								}
								JOINT RightHandMiddle1
								{
									OFFSET -11.335861 0.000000 0.000000
									CHANNELS 3 Xrotation Yrotation Zrotation
									JOINT RightHandMiddle2
									{
										OFFSET -3.410492 0.000000 0.000000
										CHANNELS 3 Xrotation Yrotation Zrotation
										JOINT RightHandMiddle3
										{
											OFFSET -3.312172 0.000000 0.000000
											CHANNELS 3 Xrotation Yrotation Zrotation
											End Site
											{
												OFFSET 1.150200 3.080154 0.400270
											}
										}
									}
								}
								JOINT RightHandRing1
								{
									OFFSET -11.514786 -0.013176 -3.003090
									CHANNELS 3 Xrotation Yrotation Zrotation
									JOINT RightHandRing2
									{
										OFFSET -3.053307 0.000000 0.000000
										CHANNELS 3 Xrotation Yrotation Zrotation
										JOINT RightHandRing3
										{
											OFFSET -3.295807 0.000000 0.000000
											CHANNELS 3 Xrotation Yrotation Zrotation
											End Site
											{
												OFFSET 1.281006 3.013344 0.375733
											}
										}
									}
								}
								JOINT RightHandPinky1
								{
									OFFSET -10.518692 -0.960396 -5.730441
									CHANNELS 3 Xrotation Yrotation Zrotation
									JOINT RightHandPinky2
									{
										OFFSET -2.861649 0.000000 0.000000
										CHANNELS 3 Xrotation Yrotation Zrotation
										JOINT RightHandPinky3
										{
											OFFSET -2.863380 0.000000 0.000000
											CHANNELS 3 Xrotation Yrotation Zrotation
											End Site
											{
												OFFSET 0.843597 2.711159 0.369971
											}
										}
									}
								}
							}
							JOINT RSleeve
							{
								OFFSET -6.676277 -0.344902 -1.011730
								CHANNELS 3 Xrotation Yrotation Zrotation
								End Site
								{
									OFFSET 0.000000 14.885353 0.000000
								}
							}
						}
					}
				}
				JOINT Backpack
				{
					OFFSET 0.000000 -2.471497 36.677502
					CHANNELS 3 Xrotation Yrotation Zrotation
					End Site
					{
						OFFSET 0.000000 20.427315 0.000000
					}
				}
				JOINT Hood
				{
					OFFSET 0.000000 18.754097 -10.431000
					CHANNELS 3 Xrotation Yrotation Zrotation
					JOINT Hood1
					{
						OFFSET 0.000000 -5.011002 -7.685901
						CHANNELS 3 Xrotation Yrotation Zrotation
						End Site
						{
							OFFSET 0.000000 9.175140 0.000000
						}
					}
				}
				JOINT LHoodieString
				{
					OFFSET 5.250500 16.397697 3.089900
					CHANNELS 3 Xrotation Yrotation Zrotation
					JOINT LHoodieString1
					{
						OFFSET 0.257700 -6.364304 3.694600
						CHANNELS 3 Xrotation Yrotation Zrotation
						JOINT LHoodieString2
						{
							OFFSET 0.000000 -9.643799 2.679100
							CHANNELS 3 Xrotation Yrotation Zrotation
							End Site
							{
								OFFSET 0.000000 10.009018 0.000000
							}
						}
					}
				}
				JOINT RHoodieString
				{
					OFFSET -5.250500 16.397697 3.089900
					CHANNELS 3 Xrotation Yrotation Zrotation
					JOINT RHoodieString1
					{
						OFFSET -0.257700 -6.364304 3.694600
						CHANNELS 3 Xrotation Yrotation Zrotation
						JOINT RHoodieString2
						{
							OFFSET 0.000000 -9.643799 2.679100
							CHANNELS 3 Xrotation Yrotation Zrotation
							End Site
							{
								OFFSET 0.000000 10.009018 0.000000
							}
						}
					}
				}
			}
			JOINT LBackpack_Strap
			{
				OFFSET 15.223200 -7.719803 -6.610900
				CHANNELS 3 Xrotation Yrotation Zrotation
				End Site
				{
					OFFSET 0.000000 16.040596 0.000000
				}
			}
			JOINT RBackpack_Strap
			{
				OFFSET -15.223000 -7.719803 -6.610900
				CHANNELS 3 Xrotation Yrotation Zrotation
				End Site
				{
					OFFSET 0.000000 16.040596 0.000000
				}
			}
		}
	}
	JOINT BoyFacialAnim_Joint
	{
		OFFSET 1.000000 -82.208099 -1.550900
		CHANNELS 3 Xrotation Yrotation Zrotation
		End Site
		{
			OFFSET 0.000000 30.012791 0.000000
		}
	}
}
MOTION
Frames: 5
Frame Time: 0.016667
-0.044235 74.825233 -0.053658 -0.669646 -15.837296 -1.587034 0.000000 0.000001 0.000000 -35.877201 17.131002 14.105256 51.153155 3.716875 10.213775 -16.947704 1.729159 -11.032893 -0.000000 0.000000 -0.000000 -0.000000 0.000000 -0.000000 -0.000001 -0.000000 0.000001 -31.800930 -21.113310 -10.962183 50.733228 -3.433107 -10.210132 -20.054699 -2.215165 10.379468 0.000000 -0.000000 0.000000 0.000000 -0.000000 0.000000 0.000003 -0.000002 0.000001 3.773177 1.243401 0.177664 2.523602 1.177443 -0.059024 2.503912 1.224026 -0.090937 0.457849 0.824229 4.848789 8.545300 11.130796 -0.783159 0.000000 0.000000 -0.000000 0.000000 0.000000 -0.000000 0.000000 0.000000 -0.000000 0.513448 1.082366 14.986781 -49.547449 -53.697192 -56.631991 -0.000011 -52.589557 -0.000011 -101.282546 -0.136474 2.488756 35.234562 -17.219587 -17.236898 29.406867 28.726509 -29.411799 -0.000000 0.000001 -0.000000 0.797683 3.221927 -27.804747 0.799618 3.225531 -27.838620 0.000001 -0.000002 0.000001 0.796783 3.220224 -27.788719 0.800509 3.227236 -27.854637 0.000001 0.000001 -0.000002 0.797689 3.221916 -27.804756 0.799609 3.225525 -27.838618 -0.000001 -0.000000 -0.000002 2.684982 6.814107 -27.459493 0.809064 -0.835566 -28.291876 -0.000001 0.000000 0.000002 0.000000 0.000004 0.000002 0.384724 -1.325532 -0.769391 3.866040 95.192135 -10.302442 0.000000 25.659960 -0.000000 -50.084261 -3.447561 -9.781593 40.606636 -3.110558 26.124249 -37.849473 -44.265015 -46.874943 -0.000000 0.000001 -0.000000 3.635321 -6.111035 61.464504 7.728642 -6.904488 96.464442 -0.000001 -0.000000 0.000004 3.635330 -6.111020 61.464490 7.728607 -6.904470 96.464449 0.000001 0.000001 0.000002 3.635330 -6.111009 61.464497 7.728605 -6.904483 96.464449 -0.000000 0.000000 0.000000 3.635321 -6.110992 61.464497 7.728629 -6.904494 96.464442 -0.000003 -0.000002 0.000002 -0.000000 0.000001 0.000000 0.000001 0.000000 -0.000000 0.000001 0.000000 -0.000000 0.000001 0.000000 -0.000000 0.000001 0.000000 -0.000000 0.000001 0.000000 -0.000000 0.000000 0.000000 -0.000000 0.000001 0.000000 -0.000000 0.000001 0.000000 -0.000000 0.000000 0.000000 -0.000000 0.000000 -0.000000 0.000000 0.000000 -0.000000 0.000000 0.000000 0.000001 0.000000 
-0.011799 74.802658 -0.034123 -0.673406 -15.785243 -1.574935 -0.000000 0.000001 -0.000000 -35.881361 17.061811 14.019050 51.239427 3.771259 10.212974 -17.004772 1.738907 -11.023703 -0.000000 0.000000 -0.000000 -0.000000 0.000000 -0.000000 -0.000000 0.000000 0.000001 -31.900258 -21.290137 -11.154796 50.835735 -3.275858 -10.208846 -20.110413 -2.181116 10.347831 -0.000000 0.000000 0.000000 -0.000000 0.000000 0.000000 0.000002 0.000003 0.000001 3.764911 1.223597 0.222974 2.514744 1.164375 -0.024040 2.495215 1.211957 -0.055856 0.444798 0.831758 4.833577 8.560010 11.165284 -0.906731 0.000001 0.000000 -0.000000 0.000001 0.000000 -0.000000 0.000001 0.000000 -0.000000 0.748158 0.781682 15.125089 -49.125883 -53.329888 -56.178883 0.000001 -52.952486 0.000003 -101.491263 -0.073163 2.700958 35.234555 -17.219581 -17.236898 29.406867 28.726512 -29.411792 0.000002 -0.000002 -0.000001 0.797687 3.221926 -27.804747 0.799617 3.225527 -27.838625 -0.000000 -0.000001 -0.000002 0.796787 3.220224 -27.788720 0.800510 3.227237 -27.854637 -0.000000 0.000002 -0.000001 0.797690 3.221917 -27.804752 0.799606 3.225524 -27.838620 0.000001 -0.000001 -0.000002 2.684983 6.814104 -27.459488 0.809058 -0.835567 -28.291871 -0.000002 0.000000 -0.000000 -0.000001 -0.000000 -0.000001 0.387290 -1.315634 -0.755623 4.637038 95.148626 -10.970034 0.000000 25.704915 0.000000 -50.030302 -3.689076 -9.647743 40.606636 -3.110557 26.124249 -37.849466 -44.265015 -46.874939 -0.000001 -0.000001 -0.000000 3.635321 -6.111036 61.464510 7.728641 -6.904485 96.464435 0.000002 0.000001 0.000002 3.635330 -6.111019 61.464497 7.728603 -6.904470 96.464449 0.000003 -0.000002 -0.000002 3.635325 -6.111008 61.464490 7.728602 -6.904476 96.464456 0.000000 -0.000000 -0.000001 3.635323 -6.110992 61.464504 7.728629 -6.904495 96.464449 -0.000004 -0.000001 0.000000 -0.000000 -0.000003 -0.000000 -0.000000 -0.000001 0.000000 -0.000000 -0.000001 0.000000 -0.000000 -0.000001 0.000000 -0.000000 -0.000001 0.000000 -0.000000 -0.000001 0.000000 -0.000000 -0.000001 0.000000 -0.000000 -0.000001 0.000000 -0.000000 -0.000001 0.000000 -0.000000 -0.000001 0.000000 0.000000 -0.000001 0.000000 0.000000 -0.000001 0.000000 -0.000000 0.000001 -0.000000 
0.027720 74.776871 -0.010778 -0.691473 -15.729550 -1.566048 -0.000000 -0.000001 -0.000000 -35.863896 16.963658 13.908098 51.336214 3.856627 10.212008 -17.071221 1.754782 -11.022622 0.000000 -0.000000 -0.000000 0.000000 -0.000000 -0.000000 0.000001 0.000000 0.000000 -31.996991 -21.479485 -11.369481 50.950213 -3.102030 -10.207410 -20.171719 -2.145152 10.317016 -0.000000 0.000002 0.000000 -0.000000 0.000002 0.000000 0.000001 -0.000002 0.000000 3.764422 1.206893 0.276012 2.511989 1.154430 0.015427 2.492558 1.203283 -0.016407 0.427323 0.835599 4.813935 8.559338 11.171113 -1.001659 0.000001 -0.000000 -0.000000 0.000001 -0.000000 -0.000000 0.000001 -0.000000 -0.000000 0.696102 0.770074 15.279767 -49.162827 -53.221517 -56.426071 -0.000010 -52.964722 -0.000010 -101.561553 0.130804 2.653114 35.234555 -17.219588 -17.236899 29.406874 28.726505 -29.411795 0.000002 -0.000004 0.000000 0.797684 3.221926 -27.804747 0.799618 3.225533 -27.838625 0.000001 -0.000000 -0.000005 0.796786 3.220224 -27.788725 0.800509 3.227233 -27.854635 -0.000000 0.000002 0.000000 0.797692 3.221918 -27.804758 0.799608 3.225526 -27.838615 -0.000001 -0.000001 -0.000002 2.684984 6.814108 -27.459493 0.809060 -0.835569 -28.291875 -0.000004 0.000000 0.000002 -0.000002 0.000003 0.000002 0.383951 -1.340512 -0.713610 5.055018 95.126319 -11.279634 -0.000000 25.763178 0.000001 -50.049461 -3.937763 -9.643302 40.606643 -3.110556 26.124248 -37.849469 -44.265011 -46.874943 -0.000000 0.000001 -0.000000 3.635321 -6.111035 61.464510 7.728644 -6.904489 96.464435 0.000001 -0.000001 0.000002 3.635330 -6.111018 61.464504 7.728607 -6.904471 96.464442 -0.000000 -0.000000 -0.000000 3.635325 -6.111006 61.464497 7.728603 -6.904478 96.464456 0.000003 -0.000001 0.000002 3.635324 -6.110991 61.464504 7.728627 -6.904491 96.464449 -0.000003 0.000000 -0.000001 -0.000000 -0.000002 0.000000 -0.000000 0.000000 -0.000000 -0.000000 0.000000 -0.000000 -0.000000 0.000000 -0.000000 -0.000000 0.000000 -0.000000 -0.000000 0.000000 -0.000000 -0.000000 0.000000 -0.000000 -0.000000 0.000000 -0.000000 -0.000000 0.000000 -0.000000 -0.000000 0.000000 -0.000000 -0.000000 0.000001 -0.000000 -0.000000 0.000001 -0.000000 -0.000000 -0.000001 -0.000000 
0.078765 74.748573 0.016452 -0.725985 -15.681786 -1.557524 0.000000 0.000001 0.000000 -35.821088 16.849445 13.771675 51.440771 3.977261 10.210934 -17.148390 1.774025 -11.027407 -0.000000 -0.000000 -0.000000 -0.000000 -0.000000 0.000000 -0.000003 0.000001 0.000001 -32.086152 -21.651923 -11.596804 51.072507 -2.922536 -10.205891 -20.231314 -2.113475 10.295377 0.000000 0.000002 -0.000000 0.000000 0.000002 -0.000000 -0.000001 -0.000000 0.000001 3.771751 1.194699 0.340241 2.515585 1.148444 0.062321 2.496205 1.198884 0.030350 0.407234 0.837273 4.781250 8.539278 11.143539 -1.073497 -0.000001 0.000000 0.000000 -0.000001 0.000000 0.000000 -0.000001 0.000000 0.000000 0.649401 0.743677 15.445088 -49.232229 -53.041296 -56.699453 -0.000013 -52.985087 -0.000016 -101.509056 0.375120 2.524137 35.234555 -17.219581 -17.236898 29.406874 28.726505 -29.411795 0.000000 -0.000001 0.000002 0.797684 3.221926 -27.804752 0.799615 3.225528 -27.838623 0.000001 -0.000001 -0.000004 0.796784 3.220223 -27.788720 0.800509 3.227237 -27.854640 0.000003 -0.000001 -0.000002 0.797691 3.221917 -27.804756 0.799607 3.225523 -27.838615 0.000001 -0.000003 -0.000001 2.684980 6.814107 -27.459493 0.809058 -0.835568 -28.291876 0.000002 -0.000001 -0.000000 0.000000 -0.000005 -0.000002 0.376742 -1.384607 -0.671987 5.292091 95.121237 -11.413720 -0.000000 25.831337 0.000001 -50.103420 -4.169121 -9.766409 40.606639 -3.110557 26.124248 -37.849476 -44.265015 -46.874936 0.000001 0.000000 0.000001 3.635319 -6.111033 61.464510 7.728643 -6.904482 96.464442 -0.000003 0.000000 0.000004 3.635332 -6.111019 61.464490 7.728605 -6.904471 96.464449 -0.000004 0.000003 -0.000001 3.635327 -6.111007 61.464497 7.728602 -6.904480 96.464456 -0.000003 0.000000 0.000000 3.635325 -6.110992 61.464504 7.728628 -6.904492 96.464449 -0.000002 -0.000001 -0.000000 -0.000000 -0.000000 0.000000 0.000001 -0.000001 0.000000 0.000001 -0.000001 0.000000 0.000001 -0.000001 0.000000 0.000001 -0.000001 0.000000 0.000001 -0.000001 0.000000 0.000001 -0.000001 0.000000 0.000001 -0.000001 0.000000 0.000001 -0.000001 0.000000 0.000001 -0.000001 0.000000 0.000000 0.000001 -0.000000 0.000000 0.000001 -0.000000 0.000000 0.000001 0.000000 
0.147780 74.718643 0.046758 -0.775684 -15.659230 -1.545077 -0.000000 0.000002 0.000000 -35.754715 16.741443 13.612552 51.550129 4.136330 10.209680 -17.237978 1.791403 -11.032855 0.000000 0.000000 0.000000 0.000000 0.000000 -0.000000 -0.000001 -0.000001 -0.000000 -32.168333 -21.775615 -11.827947 51.197568 -2.745445 -10.204245 -20.278864 -2.090551 10.290750 0.000000 -0.000000 0.000000 0.000000 -0.000000 0.000000 0.000000 -0.000002 0.000002 3.785484 1.190986 0.418374 2.524802 1.149003 0.120566 2.505399 1.201392 0.088318 0.385440 0.838614 4.727868 8.503749 11.082635 -1.138267 0.000001 -0.000000 -0.000000 0.000001 -0.000000 -0.000000 0.000001 -0.000000 -0.000000 0.614100 0.699942 15.619082 -49.322551 -52.782831 -56.988684 0.000002 -53.012749 -0.000002 -101.382110 0.591587 2.322987 35.234562 -17.219581 -17.236894 29.406867 28.726505 -29.411792 0.000000 0.000000 0.000002 0.797687 3.221925 -27.804744 0.799616 3.225531 -27.838625 -0.000001 0.000000 -0.000002 0.796788 3.220223 -27.788724 0.800509 3.227234 -27.854637 -0.000003 -0.000001 0.000002 0.797690 3.221917 -27.804756 0.799608 3.225525 -27.838620 -0.000000 -0.000001 -0.000001 2.684982 6.814105 -27.459490 0.809057 -0.835568 -28.291875 0.000001 0.000000 -0.000002 0.000002 -0.000000 0.000001 0.369205 -1.423147 -0.665888 5.529792 95.119263 -11.566588 -0.000001 25.903098 0.000001 -50.137526 -4.369463 -9.973896 40.606636 -3.110557 26.124248 -37.849476 -44.265018 -46.874939 -0.000001 -0.000004 -0.000001 3.635323 -6.111035 61.464504 7.728642 -6.904484 96.464442 -0.000003 -0.000001 0.000002 3.635326 -6.111018 61.464497 7.728607 -6.904471 96.464449 -0.000002 0.000003 0.000002 3.635325 -6.111007 61.464504 7.728603 -6.904482 96.464456 -0.000003 -0.000001 0.000004 3.635324 -6.110991 61.464497 7.728630 -6.904492 96.464442 -0.000000 -0.000000 -0.000003 -0.000000 -0.000001 -0.000000 0.000000 -0.000001 0.000000 0.000000 -0.000001 0.000000 0.000000 -0.000001 0.000000 0.000000 -0.000001 0.000000 0.000000 -0.000001 0.000000 0.000000 -0.000001 0.000000 0.000000 -0.000001 0.000000 0.000000 -0.000001 0.000000 0.000000 -0.000001 0.000000 0.000000 -0.000001 0.000000 0.000000 -0.000001 0.000000 -0.000000 0.000002 0.000000 
